<svg xmlns="http://www.w3.org/2000/svg" viewBox="0 0 1200.000000 276.000000"><g transform="translate(0.000000,276.000000) scale(0.100000,-0.100000)" fill="#ffffff"><path d="M2036 2744 c-3 -9 -6 -397 -6 -862 0 -957 -4 -1035 -67 -1168 -36
-77 -102 -132 -194 -163 -114 -37 -195 -41 -975 -41 -724 0 -762 -1 -777 -18
-23 -25 -26 -462 -3 -481 18 -15 1751 -9 1841 6 464 78 672 302 725 778 11 98
15 1921 4 1949 -9 24 -539 25 -548 0z"/><path d="M3186 2744 c-8 -20 -8 -2708 0 -2728 5 -14 39 -16 273 -16 l268 0 11
25 c16 35 17 2687 2 2716 -15 27 -544 30 -554 3z"/><path d="M4781 2668 c-39 -51 -148 -196 -241 -323 -94 -126 -179 -241 -190
-255 -373 -494 -411 -553 -418 -650 -6 -92 21 -148 158 -325 25 -32 63 -82 85
-110 22 -29 60 -78 85 -110 65 -83 89 -115 139 -181 25 -32 116 -151 203 -264
87 -113 175 -227 196 -253 20 -27 63 -82 96 -123 l58 -74 309 0 309 0 0 23 c0
12 -30 60 -68 108 -72 93 -293 373 -435 553 -546 690 -547 692 -547 768 0 61
2 64 375 543 13 17 67 86 120 155 53 69 103 133 111 143 8 10 27 34 42 55 51
69 125 162 128 160 1 -2 57 -167 124 -368 66 -201 125 -374 130 -385 4 -11 49
-144 99 -295 99 -302 130 -395 142 -425 4 -11 20 -58 35 -105 15 -47 30 -94
35 -105 4 -11 65 -190 134 -398 69 -208 133 -389 141 -403 l16 -24 263 0 c252
0 264 1 270 19 5 17 -192 617 -696 2121 -7 19 -20 58 -31 85 -10 28 -27 79
-37 115 -33 111 -132 394 -143 408 -8 9 -114 12 -469 12 l-458 0 -70 -92z"/><path d="M6333 2728 c5 -31 88 -288 108 -333 4 -11 31 -92 60 -180 28 -88 55
-169 59 -180 5 -11 147 -432 314 -935 340 -1020 352 -1053 369 -1081 19 -30
542 -30 552 0 3 11 2 28 -4 38 -5 10 -21 56 -36 103 -14 47 -30 94 -34 105 -9
23 -16 45 -72 215 -22 69 -45 134 -49 145 -5 11 -48 139 -95 285 -48 146 -91
274 -96 285 -4 11 -101 299 -214 640 -114 341 -217 649 -229 685 -13 36 -28
83 -35 105 -7 22 -22 61 -33 88 l-21 47 -275 0 -274 0 5 -32z"/><path d="M8387 2723 c-19 -44 -125 -354 -137 -398 -4 -16 -15 -50 -24 -75 -9
-25 -88 -261 -177 -525 -88 -264 -164 -489 -169 -500 -5 -11 -16 -45 -25 -75
-9 -30 -20 -64 -25 -75 -22 -49 -40 -135 -34 -162 7 -29 32 -105 152 -461 114
-335 135 -331 252 43 26 82 208 625 219 650 4 11 13 35 19 53 58 178 285 852
292 867 24 54 220 656 220 674 0 21 -2 21 -273 21 l-274 0 -16 -37z"/><path d="M9885 2749 c-22 -5 -62 -14 -90 -20 -330 -70 -536 -266 -611 -580
-39 -166 -44 -251 -44 -772 0 -502 2 -542 36 -722 67 -349 290 -567 639 -625
39 -6 92 -15 118 -21 28 -5 408 -9 895 -9 838 0 846 0 906 21 103 36 181 109
223 205 43 102 43 97 43 757 l0 636 -32 6 c-18 3 -352 5 -741 3 -688 -3 -709
-4 -723 -22 -17 -24 -20 -365 -4 -397 10 -18 26 -19 500 -19 l490 0 0 -257 c0
-316 -11 -359 -102 -403 -41 -19 -60 -20 -666 -20 -407 0 -639 4 -666 11 -187
48 -256 102 -306 240 -36 98 -42 196 -38 675 l4 459 28 81 c37 107 92 172 183
215 117 56 171 58 1176 59 l897 0 0 255 0 255 -1037 -1 c-587 -1 -1055 -5
-1078 -10z"/></g></svg>